<svg xmlns="http://www.w3.org/2000/svg"  viewBox="0 0 64 64" width="64px" height="64px"><g data-name="Filled outline"><rect width="12" height="14" x="30" y="30" fill="#5a6470"/><path fill="#394d5c" d="M53,54a9,9,0,1,1,9-9A9.01,9.01,0,0,1,53,54Z"/><path fill="#7c8c9a" d="M53,49a4,4,0,1,1,4-4A4.005,4.005,0,0,1,53,49Z"/><path fill="#394d5c" d="M11,54a9,9,0,1,1,9-9A9.01,9.01,0,0,1,11,54Z"/><polygon fill="#7c8c9a" points="37 31.259 37 36 44 40 51 34.556 58 33 47 29 44 25 37 31.259"/><polygon fill="#5a6470" points="58 33 57 25 48.063 16.875 44 25 47 29 58 33"/><polygon fill="#a8bccb" points="57 25 52 16 45 12 46 15 57 25"/><polygon fill="#a8bccb" points="43 25.905 36 24 32 24 25 30 34 34 43 25.905"/><path fill="#394d5c" d="M35,39h5a2,2,0,0,1,2,2v3a0,0,0,0,1,0,0H33a0,0,0,0,1,0,0V41A2,2,0,0,1,35,39Z"/><polygon fill="#394d5c" points="29.729 32.102 21.229 35.542 18 34.292 18 31 25 30 29.729 32.102"/><polygon fill="#394d5c" points="18 31 18 34.292 3 28.484 3 26 16 28 18 31"/><polygon fill="#7c8c9a" points="26.708 48.583 42 48.458 42 44 33 44 33 39 31 37 20 39 26.708 48.583"/><polygon fill="#f4ab37" points="57.417 28.333 52 24 52 28 58 33 57.417 28.333"/><rect width="12.288" height="4" x="8.07" y="42.915" fill="#7c8c9a" transform="rotate(17.149 14.213 44.917)"/><polygon fill="#f4ab37" points="14.76 37.9 12.56 42.31 3 39.36 3 33 14.76 37.9"/><polygon fill="#e97424" points="16.8 33.83 14.76 37.9 3 33 3 28.48 16.8 33.83"/><polygon fill="#5a6470" points="34 34 31 37 20 39 15 38 14.76 37.9 16.8 33.83 21.23 35.54 29.73 32.1 34 34"/><path d="M53,36a8.93,8.93,0,0,0-2.816.458l1.253-.975,6.78-1.506A1,1,0,0,0,59,33.065a1.058,1.058,0,0,0-.018-.187l.012,0-1-8,0-.012a.979.979,0,0,0-.048-.157,1.007,1.007,0,0,0-.062-.18l0-.012-5-9a.987.987,0,0,0-.378-.383l-7-4a1,1,0,0,0-1.445,1.184l1,3a1,1,0,0,0,.276.424l1.5,1.366-3.64,7.279L43,24.557V21a1,1,0,0,0-.835-.986l-6-1a1,1,0,0,0-.33,1.972L41,21.847v2.477l-4.737-1.289A1.016,1.016,0,0,0,36,23H32a1,1,0,0,0-.651.241l-6.778,5.81-6.089.87-1.65-2.476a1,1,0,0,0-.68-.433l-13-2A1,1,0,0,0,2,26V39.364a1,1,0,0,0,.706.956l.518.16A8.987,8.987,0,1,0,18.79,49.466l.41.127a1,1,0,0,0,1.25-.66l.3-.96,2.939.976A1.018,1.018,0,0,0,24,49H42a1,1,0,0,0,1-1V41a2.956,2.956,0,0,0-.045-.445l.549.313a1,1,0,0,0,1.11-.079l.812-.632A8.992,8.992,0,1,0,53,36Zm3.693-5.4-4.532-3.925.334-1,3.98,3.184ZM51.261,16.729l1.911,3.439-4.437-4.033-1.869-1.7-.09-.269ZM48.367,18.5l7.687,6.989.065.522-3.494-2.795a1,1,0,0,0-1.574.465l-1,3a1,1,0,0,0,.3,1.075l2.826,2.423-5.553-2.02-1.269-1.691L45.171,24.9Zm-16,6.5h3.5l5.1,1.388-7.153,6.435-3.679-1.635-3.282-1.459ZM30.514,36.072l-10.5,1.91-3.785-.757,1.068-2.135.347.135,3.229,1.25a1,1,0,0,0,.361.067h0a1,1,0,0,0,.372-.073l8.106-3.281,2.553,1.135ZM9.228,40.237h0L4,38.626V34.5l9.394,3.914-1.347,2.693L12,41.092ZM19,31.867l5.856-.837,2.313,1.029-5.948,2.408L19,33.606Zm-3.582,2.5L14.29,36.621,4,32.333V29.944Zm-.268,5.01a6.909,6.909,0,0,1,2.505,3.463l-3.671-1.133ZM4,27.166l11.413,1.755L17,31.3v1.529L4,27.8ZM11,52A6.964,6.964,0,0,1,5.222,41.1l2.46.759L6.8,44.72a1,1,0,0,0,.66,1.25l9.373,2.892A6.992,6.992,0,0,1,11,52Zm7.834-4.612L9,44.354l.589-1.91,2.675.825h0l7.151,2.208Zm2.5-1.327.293-.951a1,1,0,0,0-.66-1.25l-1.106-.341a8.89,8.89,0,0,0-1.625-3.852l1.2.24L24.955,47h-.793ZM41,47H27.489L21.8,39.688l8.861-1.611L32,39.414V44a1,1,0,0,0,1,1h8Zm-7-6a1,1,0,0,1,1-1h5a1,1,0,0,1,1,1v2H34Zm1-3a2.957,2.957,0,0,0-1.287.3l-.006-.009L32.414,37l2.274-2.274L36,33.546V36a1,1,0,0,0,.5.868L38.485,38Zm8.915.8L38,35.42V31.776l5.858-5.3L46.2,29.6a1,1,0,0,0,.458.339l7.778,2.829-3.653.811a1,1,0,0,0-.4.188ZM53,52a6.993,6.993,0,0,1-3.725-12.916l.826,1.858a5.031,5.031,0,1,0,1.825-.819L51.1,38.269A7,7,0,1,1,53,52Zm-.914-6.595a1,1,0,1,0,1.828-.81l-1.143-2.572c.077-.006.151-.023.229-.023a3.018,3.018,0,1,1-2.06.829Z"/></g></svg>