<svg xmlns="http://www.w3.org/2000/svg"  viewBox="0 0 64 64" width="48px" height="48px"><path d="M 13.707031 15 C 10.658031 15 7.9167344 16.694828 6.5527344 19.423828 L 3.1601562 26.205078 C 2.4001563 27.724078 2 29.426 2 31.125 L 2 39.46875 C 2 42.48875 4.2598594 45.048828 7.2558594 45.423828 L 10.242188 45.796875 C 11.036585 48.790515 13.756384 51 17 51 C 20.170669 51 22.846171 48.890989 23.707031 46 L 41.292969 46 C 42.153829 48.890989 44.829331 51 48 51 C 51.328614 51 54.108158 48.673988 54.818359 45.560547 L 58.373047 44.544922 C 60.509047 43.934922 62 41.957328 62 39.736328 L 62 33.46875 C 62 30.50275 59.786609 27.949297 56.849609 27.529297 L 47.119141 26.140625 L 41.714844 18.707031 C 40.026844 16.386031 37.304547 15 34.435547 15 L 13.707031 15 z M 13.707031 19 L 22 19 L 22 26 L 7.7363281 26 L 10.130859 21.210938 C 10.811859 19.846938 12.183031 19 13.707031 19 z M 26 19 L 34.435547 19 C 36.028547 19 37.541469 19.769594 38.480469 21.058594 L 42.074219 26 L 26 26 L 26 19 z M 17 41 C 18.657 41 20 42.343 20 44 C 20 45.657 18.657 47 17 47 C 15.343 47 14 45.657 14 44 C 14 42.343 15.343 41 17 41 z M 48 41 C 49.657 41 51 42.343 51 44 C 51 45.657 49.657 47 48 47 C 46.343 47 45 45.657 45 44 C 45 42.343 46.343 41 48 41 z"/></svg>