<svg xmlns="http://www.w3.org/2000/svg"  viewBox="0 0 64 64" width="48px" height="48px"><path d="M 32 3 C 28.864 3 25.867297 4.3444531 23.779297 6.6894531 C 22.117297 8.5564531 21.155484 10.93225 21.021484 13.40625 C 16.340484 14.70825 13 18.978 13 24 C 13 28.051462 15.208414 31.589293 18.478516 33.498047 L 30.212891 56.896484 C 30.552891 57.573484 31.243 58 32 58 C 32.757 58 33.447109 57.573484 33.787109 56.896484 L 45.521484 33.498047 C 48.791586 31.589293 51 28.051462 51 24 C 51 18.978 47.659516 14.70825 42.978516 13.40625 C 42.844516 10.93225 41.882703 8.5554531 40.220703 6.6894531 C 38.132703 4.3444531 35.136 3 32 3 z M 32 7 C 33.996 7 35.903375 7.8565625 37.234375 9.3515625 C 38.574375 10.856563 39.181266 12.797359 38.947266 14.818359 C 38.885266 15.349359 39.04 15.883781 39.375 16.300781 C 39.708 16.718781 40.196516 16.982109 40.728516 17.037109 C 44.303516 17.405109 47 20.399 47 24 C 47 27.86 43.859 31 40 31 C 37.371 31 34.985344 29.542313 33.777344 27.195312 C 33.435344 26.529312 32.749 26.111328 32 26.111328 C 31.251 26.111328 30.564656 26.529312 30.222656 27.195312 C 29.014656 29.542313 26.629 31 24 31 C 20.141 31 17 27.86 17 24 C 17 20.40766 19.682927 17.421707 23.246094 17.041016 C 23.248087 17.040834 23.249959 17.041203 23.251953 17.041016 C 23.481522 17.018709 23.711273 17.00609 23.947266 17.003906 C 24.025551 17.003277 24.098923 17.009998 24.175781 17.011719 C 24.40533 17.017463 24.632628 17.03105 24.857422 17.058594 C 24.92222 17.06614 24.987112 17.072831 25.050781 17.082031 C 25.83744 17.200695 26.583545 17.460951 27.271484 17.826172 C 27.432797 17.913223 27.598664 17.99703 27.748047 18.09375 C 27.846387 18.156346 27.938069 18.229361 28.033203 18.296875 C 28.218924 18.431086 28.402975 18.565667 28.568359 18.710938 C 28.632997 18.767019 28.69321 18.828177 28.755859 18.886719 C 28.929986 19.05111 29.098523 19.217907 29.248047 19.388672 C 29.310139 19.459714 29.366386 19.535595 29.425781 19.609375 C 29.551176 19.764363 29.673661 19.920188 29.779297 20.074219 C 29.937453 20.308182 30.089357 20.548863 30.220703 20.804688 C 30.287605 20.934674 30.381004 21.056646 30.484375 21.175781 C 30.528155 21.227439 30.570951 21.277853 30.619141 21.324219 C 30.697608 21.398911 30.785516 21.465663 30.876953 21.529297 C 30.94681 21.577103 31.016879 21.61982 31.091797 21.658203 C 31.194389 21.712855 31.301221 21.759994 31.414062 21.796875 C 31.446072 21.80671 31.477288 21.81599 31.509766 21.824219 C 31.901376 21.930518 32.34019 21.915188 32.792969 21.714844 C 32.833012 21.697439 32.874688 21.690148 32.914062 21.669922 C 33.159562 21.543672 33.368578 21.371297 33.535156 21.171875 C 33.701346 20.972918 33.825951 20.745004 33.904297 20.501953 C 33.904297 20.501953 33.904297 20.5 33.904297 20.5 C 33.943258 20.378762 33.970946 20.253791 33.986328 20.126953 C 33.986328 20.126953 33.986328 20.125 33.986328 20.125 C 34.001589 19.998153 34.003612 19.869103 33.994141 19.740234 C 33.994141 19.740234 33.994141 19.738281 33.994141 19.738281 C 33.98454 19.609393 33.963231 19.480848 33.927734 19.353516 C 33.927734 19.353516 33.927734 19.351562 33.927734 19.351562 C 33.892092 19.224193 33.842014 19.098793 33.779297 18.976562 C 33.779297 18.976562 33.779297 18.974609 33.779297 18.974609 C 33.662422 18.747234 33.535721 18.520748 33.402344 18.300781 C 32.714344 17.162287 31.839197 16.179044 30.830078 15.376953 C 30.806165 15.357878 30.779951 15.341157 30.755859 15.322266 C 30.59097 15.19346 30.423713 15.068181 30.251953 14.949219 C 30.164287 14.888206 30.074088 14.830092 29.984375 14.771484 C 29.866322 14.694757 29.747866 14.618969 29.626953 14.546875 C 29.50759 14.47534 29.384357 14.409009 29.261719 14.341797 C 29.167468 14.290399 29.074286 14.23807 28.978516 14.189453 C 28.828472 14.112925 28.676033 14.040583 28.521484 13.970703 C 28.452061 13.93943 28.382615 13.908742 28.3125 13.878906 C 28.140442 13.805469 27.966324 13.73678 27.789062 13.671875 C 27.729536 13.650092 27.66933 13.630138 27.609375 13.609375 C 27.427237 13.546311 27.243922 13.485357 27.056641 13.431641 C 26.992066 13.413051 26.926326 13.398281 26.861328 13.380859 C 26.676673 13.331607 26.492063 13.282026 26.302734 13.242188 C 26.20784 13.222025 26.111276 13.207139 26.015625 13.189453 C 25.854863 13.160082 25.695129 13.127853 25.53125 13.105469 C 25.379575 13.084382 25.225497 13.073423 25.072266 13.058594 C 25.251116 11.689805 25.82339 10.410059 26.767578 9.3496094 C 28.097578 7.8556094 30.004 7 32 7 z"/></svg>