<svg xmlns="http://www.w3.org/2000/svg"  viewBox="0 0 64 64" width="48px" height="48px"><path d="M 31.861328 9 C 30.335313 8.9530781 28.853844 9.7653437 28.121094 11.183594 C 27.335094 12.698594 26.320578 13.700094 25.017578 14.246094 C 21.121578 15.877094 19.05425 17.628453 18.28125 20.064453 C 18.17325 20.592453 18.117188 21.149094 18.117188 21.746094 C 18.117188 23.380094 18.761422 24.866922 19.982422 26.044922 C 23.520422 29.459922 31.429531 29.724609 33.769531 29.724609 C 34.218531 29.724609 34.539406 29.715937 34.691406 29.710938 C 35.518406 29.681937 36.214141 30.326297 36.244141 31.154297 C 36.275141 31.982297 35.628781 32.678984 34.800781 32.708984 C 34.630781 32.714984 34.273484 32.724609 33.771484 32.724609 C 30.408484 32.724609 22.129391 32.284125 17.900391 28.203125 C 16.080391 26.447125 15.117188 24.214094 15.117188 21.746094 L 15.117188 21.736328 C 12.341187 23.233328 10.550781 26.039437 10.550781 29.398438 C 10.550781 34.443437 14.65575 40.333984 26.21875 40.333984 C 32.55775 40.333984 36.212141 38.933375 38.994141 37.484375 C 44.786141 34.467375 46.671312 37.403641 46.695312 37.431641 C 47.024313 37.869641 47.5185 38.15575 48.0625 38.21875 C 48.6115 38.28375 49.152219 38.118578 49.574219 37.767578 C 49.732219 37.635578 53.449219 34.481437 53.449219 29.398438 C 53.449219 23.934437 49.15375 20.126078 42.59375 19.580078 C 41.34275 15.113078 37.182953 11.00675 33.376953 9.34375 C 32.884453 9.12825 32.37 9.0156406 31.861328 9 z M 43.564453 39.128906 C 42.729453 39.128906 41.886984 39.486516 40.208984 40.228516 C 37.241984 41.540516 33.186797 43.333984 26.216797 43.333984 C 21.431797 43.333984 17.632234 42.367781 14.740234 40.800781 L 16.734375 50.240234 C 17.317375 52.999234 19.787469 55 22.605469 55 L 41.394531 55 C 44.212531 55 46.681672 52.998234 47.263672 50.240234 L 49.185547 41.150391 C 46.393547 41.585391 44.928453 39.128906 43.564453 39.128906 z"/></svg>