<svg xmlns="http://www.w3.org/2000/svg"  viewBox="0 0 512 512" width="48px" height="48px"><path fill="#71C598" d="M219.1,459.8c-7.8-10.2-16.1-20-23.2-30.7c-14.9-22.2-26.8-46.8-33.3-72.8c-3-12.1-4.8-24.1-5.8-36.3c-1.7-0.2-3.2-1.4-3.7-3.6c-1.9-7.9-8.4-14-14.2-19.3c-5.7-5.2-11-10.6-16.3-16.2c-10-10.6-20.6-21.1-33.7-27.5c1.2,25.7,12.9,50.4,20,74.7c8.1,27.4,14.8,56.1,30.1,80.6c13,21,30.6,39.7,52.3,51.8c11.5,6.4,23.5,9.9,35.8,13.9c1.8,0.6,3.7,1.2,5.5,1.8C227.7,471.1,223.4,465.4,219.1,459.8z"/><path fill="#71C598" d="M267.1,408.4c-5.5-23.3-7.4-47.2-12.3-70.6c-4.6-21.8-13.4-42.3-24.8-61.5c-10.9-18.3-23.8-35.4-37.1-52c-8.4-10.5-19.7-18.4-28.9-28.2c1.1,10.3,3.4,20.5,4.3,30.8c1.4,15.8-0.2,31.8-0.9,47.6c-1.3,28.5-0.8,56.7,7.2,84.2c7.6,26.1,20,50.4,36.1,72.3c7.3,10,15.1,19.7,22.8,29.4c7.5,9.5,15.8,18.4,27.2,23.1c1.2,0.5,2,1.2,2.5,2.1c1.2,0.3,2.3,0.5,3.5,0.8c-0.1-1.4-0.1-2.8-0.2-4.3C265,457.3,263.5,432.8,267.1,408.4z"/><path fill="#EF4823" d="M271.6,47.5c-7.5-6.8-13.4-15-19.6-23c-2.5,6.6-5.3,13-7.9,19.5c-2.9,7.1-9,14.1-8.4,22.1c0.1,1.5-0.3,2.8-1.1,3.7c0.9,2.9,1.7,5.9,2.6,8.8c1.3,3.8,2.8,9.6,6.4,12c5.9,3.8,1.1,13.7-4.9,9.9c-9.8-6.3-11.2-17.9-14.7-28.1c-3.6-10.6-9.2-19.2-16.7-27c-6.2,12.3-6.4,25.4-7,39.3c-0.7,15.4-1.5,31,0.9,46.3c2.1,13.8,7,29,20.3,35.8c8.5,4.4,18,6.3,27.3,8.6c0.6-0.4,1.3-0.7,2-0.9c-0.9-4.3-0.9-8.9-0.7-13.3c0.3-6.3,0.4-12.8,1.1-19.1c1.6-15.2,5.3-31.1,12-45c5.8-12,13.9-23.2,20.5-35C281.4,56.6,276.7,52,271.6,47.5z"/><path fill="#EF4823" d="M313.5,79.2c-3.3-8.7-7.7-16.9-10.9-25.6c-0.4-1.2-0.8-2.3-1.2-3.5c-1.5,4.5-3.4,8.8-5.7,13.1c1,4.2,1,8.6,0,13.5c-1.1,4.9-6.8,5.3-9.5,2.7c-3.5,5.7-7,11.3-10.2,17.2c-6.9,13.1-11.4,27.7-13.3,42.4c-0.9,6.7-1.1,13.3-1.5,20c-0.2,5.2-0.7,10.9,1.2,15.9c0.1,0.2,0.2,0.5,0.2,0.7c2.5-0.8,5.3-1,7.7-1.3c6.8-0.7,12.6-2.1,18.9-5.1c15.6-7.4,26-21.6,29.7-38.5C322.7,113.2,319.7,95.6,313.5,79.2z"/><path fill="#71C598" d="M284.1 350.4c-4.3-14.9-5.2-30.4-5.8-45.8-.6-16.8-1.2-33.5-1.4-50.3-.2-13.5-.8-27.1-.6-40.6.1-10 .7-20.5 4.3-29.9-.5.1-1 .2-1.6.3-2.6.4-5.2.6-7.8.9-1.4.2-2.9.3-4.3.6-.9.2-1.4.5-1.6.6.1-.1.4-.5.9-1.3-1.2 2.2-3.3 3-5.2 2.8-.1.1-.2.1-.3.2 5.7 21.9 5.1 45 5.4 67.5.4 29.2 3.6 58.4 3.6 87.7 0 1.9-.8 3.4-2 4.4 2 11.5 3.5 23.1 5.4 34.6 3.2-10.6 6.9-21.2 11.1-31.6C284.1 350.5 284.1 350.5 284.1 350.4zM388.8 217.8c-8.7 10.8-19.2 19.7-28.7 29.8-18.7 19.9-34.4 42.3-47 66.5-6.4 12.2-12.1 24.7-17.3 37.5-5.7 14.1-11.3 28.3-15 43.2-3.8 15.4-5.6 30.9-5.4 46.8.2 15.2 1.5 30.4 2.3 45.6.1 2.4-1 4-2.6 5 1.7-.2 3.4-.3 5.1-.5 4.6-.6 8.9-2.6 12.8-5 46.3-28.2 69.7-77.9 84.6-128 8.4-28.4 15.3-56.6 16.6-86.3 1-21.7.6-43.3 2.2-64.8C394 211.1 391.5 214.5 388.8 217.8z"/><path fill="#010101" d="M400.3,177.2c-5.5,13.1-12.9,25-21.9,36c-8.8,10.7-19.5,19.5-28.9,29.6c-18.4,19.8-33.7,42.5-46.3,66.5c-4.1,7.8-8.1,15.8-11.8,24c-1.5-9.7-1.9-19.6-2.3-29.5c-0.6-16.1-1.1-32.2-1.4-48.4c-0.2-12.7-0.4-25.3-0.6-38c-0.2-11.5,0.1-24.1,5.9-34.4c0.8-1.4,0.9-2.8,0.5-3.9c2.5-1.2,4.9-2.6,7.2-4c15.4-9.2,24.7-25.4,28.8-42.5c4-16.8,1.4-34.5-3.7-50.8c-5.8-18.6-16.1-35.1-19.3-54.7c-0.5-3.1-2.7-5.1-5.9-5.1h-1c-3.3,0-4.9,3.1-5.1,5.9c-0.4,7.9-2.4,15.3-5.3,22.3c-1.7-2.2-3.6-4.4-5.7-6.5c-4.9-4.8-9.9-9.2-14.2-14.6c-5-6.2-9.6-12.7-14.8-18.7c-2.3-2.7-8-3.8-9.5,0.6c-3.4,9.9-7.6,19.6-11.5,29.3c-1.8,4.6-4.3,8.7-6.2,13c-4.7-7.9-10.8-14.8-17.7-21.1c-2-1.8-6.1-2-7.8,0.5c-4.7,7-8.3,14.3-10.3,22.6c-2.1,8.4-1.8,17.1-2.2,25.7c-0.8,17.4-1.7,34.8,0.9,52.1c2.4,15.5,8.2,31.3,21.6,40.5c10.9,7.5,24.1,9.3,36.6,12.6c7.1,23,6,47.8,6.4,71.7c0.3,16.7,1.4,33.4,2.4,50.1c-4.5-12.1-10.2-23.8-16.7-35.2c-10.9-19-24.1-36.4-37.7-53.5c-6.1-7.7-13-14.2-20.3-20.7c-7.5-6.7-15-13.4-19.9-22.3c-2.2-4-9.5-2.7-10,2c-1.4,15.5,2.1,30.4,4,45.6c2,15.7,0.5,31.8-0.3,47.5c-0.5,9.2-0.7,18.3-0.6,27.3c-2.1-2.5-4.3-4.8-6.5-7c-6.2-6.2-12.6-11.8-18.6-18.3c-12.5-13.5-26.4-26.9-44.1-33.1c-2.6-0.9-5,0.1-6.5,1.8c-1.4,1-2.4,2.5-2.4,4.6c-1,28.6,12.1,56.1,20.2,83c8.4,28.1,15.4,56.8,30.3,82.3c12.8,21.8,30.5,40.5,51.7,54.2c10.6,6.9,22.2,11.9,34.3,15.5c15.1,4.4,29.8,10.3,45,14.1c0.7,0.2,1.5,0.4,2.2,0.5c-1.3,3.5,0.6,8.1,5.3,7.4c6.9-1,14.3-0.6,20.9-2.8c6.7-2.2,12.8-6.1,18.5-10.1c10.6-7.6,20.8-16.3,29.6-25.9c17.5-19,30-42.4,39.6-66.2c10-24.7,17.7-50.9,23.6-76.9c6.9-30.4,6.2-61.3,7-92.3c0.4-16.5,1.8-33,4.7-49.3C411.7,174.7,402.8,171.3,400.3,177.2z M286.2,79.3c2.7,2.6,8.4,2.2,9.5-2.7c1.1-4.8,1-9.3,0-13.5c2.2-4.3,4.1-8.6,5.7-13.1c0.4,1.2,0.8,2.4,1.2,3.5c3.2,8.7,7.6,16.9,10.9,25.6c6.2,16.4,9.2,34,5.5,51.3c-3.6,16.8-14.1,31-29.7,38.5c-6.3,3-12.1,4.4-18.9,5.1c-2.4,0.3-5.2,0.5-7.7,1.3c-0.1-0.2-0.1-0.5-0.2-0.7c-1.9-5-1.4-10.7-1.2-15.9c0.3-6.7,0.6-13.4,1.5-20c1.9-14.7,6.4-29.3,13.3-42.4C279.1,90.6,282.7,85,286.2,79.3z M251.3,142.1c-0.7,6.3-0.8,12.7-1.1,19.1c-0.2,4.4-0.2,8.9,0.7,13.3c-0.7,0.2-1.4,0.5-2,0.9c-9.3-2.3-18.8-4.2-27.3-8.6c-13.3-6.8-18.2-22-20.3-35.8c-2.4-15.3-1.6-30.9-0.9-46.3c0.6-13.9,0.8-27,7-39.3c7.5,7.8,13.1,16.4,16.7,27c3.5,10.2,4.9,21.8,14.7,28.1c6,3.8,10.8-6.1,4.9-9.9c-3.6-2.3-5.2-8.1-6.4-12c-1-2.9-1.8-5.9-2.6-8.8c0.8-0.9,1.2-2.2,1.1-3.7c-0.5-8,5.6-15,8.4-22.1c2.6-6.5,5.4-13,7.9-19.5c6.2,8,12,16.3,19.6,23c5,4.5,9.8,9,12.1,14.6c-6.5,11.8-14.6,23.1-20.5,35C256.6,111,252.9,126.9,251.3,142.1z M227.1,474.5c-12.4-4.1-24.4-7.6-35.8-13.9c-21.7-12.1-39.3-30.9-52.3-51.8c-15.3-24.5-22-53.2-30.1-80.6c-7.2-24.3-18.8-49-20-74.7c13.1,6.4,23.7,16.8,33.7,27.5c5.3,5.6,10.6,11,16.3,16.2c5.8,5.3,12.3,11.4,14.2,19.3c0.5,2.3,2,3.4,3.7,3.6c0.9,12.1,2.7,24.2,5.8,36.3c6.5,26,18.4,50.6,33.3,72.8c7.1,10.7,15.4,20.4,23.2,30.7c4.3,5.7,8.7,11.3,13.5,16.6C230.8,475.7,228.9,475.1,227.1,474.5z M266.5,482.2c0.1,1.4,0.2,2.8,0.2,4.3c-1.2-0.2-2.3-0.5-3.5-0.8c-0.5-0.8-1.3-1.6-2.5-2.1c-11.3-4.8-19.7-13.7-27.2-23.1c-7.7-9.7-15.5-19.4-22.8-29.4c-16-21.9-28.5-46.2-36.1-72.3c-8-27.6-8.5-55.8-7.2-84.2c0.7-15.8,2.3-31.9,0.9-47.6c-0.9-10.3-3.3-20.5-4.3-30.8c9.2,9.7,20.5,17.7,28.9,28.2c13.3,16.6,26.2,33.7,37.1,52c11.4,19.1,20.2,39.6,24.8,61.5c4.9,23.4,6.8,47.3,12.3,70.6C263.5,432.8,265,457.3,266.5,482.2z M267.7,347.6c1.2-1,2-2.4,2-4.4c-0.1-29.3-3.2-58.4-3.6-87.7c-0.3-22.5,0.3-45.6-5.4-67.5c0.1-0.1,0.2-0.1,0.3-0.2c2,0.2,4-0.6,5.2-2.8c-0.4,0.8-0.8,1.2-0.9,1.3c0.2-0.1,0.7-0.4,1.6-0.6c1.4-0.3,2.9-0.4,4.3-0.6c2.6-0.3,5.2-0.5,7.8-0.9c0.5-0.1,1-0.2,1.6-0.3c-3.6,9.4-4.2,19.9-4.3,29.9c-0.2,13.5,0.4,27.1,0.6,40.6c0.2,16.8,0.8,33.5,1.4,50.3c0.6,15.4,1.5,30.9,5.8,45.8c0,0.1,0,0.1,0.1,0.1c-4.2,10.4-7.9,21-11.1,31.6C271.2,370.7,269.7,359.1,267.7,347.6z M394.3,272.3c-1.3,29.7-8.2,57.9-16.6,86.3c-14.9,50.1-38.3,99.8-84.6,128c-3.9,2.4-8.2,4.4-12.8,5c-1.7,0.2-3.4,0.4-5.1,0.5c1.6-0.9,2.8-2.6,2.6-5c-0.8-15.2-2.1-30.4-2.3-45.6c-0.2-15.9,1.7-31.4,5.4-46.8c3.6-14.8,9.3-29,15-43.2c5.1-12.8,10.9-25.3,17.3-37.5c12.6-24.2,28.3-46.6,47-66.5c9.5-10.1,20-19,28.7-29.8c2.7-3.3,5.2-6.8,7.6-10.3C394.9,229.1,395.2,250.7,394.3,272.3z"/></svg>