<svg xmlns="http://www.w3.org/2000/svg"  viewBox="0 0 64 64" width="48px" height="48px"><path d="M34.737 16.926c2.564 1.261 5.076 2.812 7.553 4.57C42.086 31 37.744 38.674 37.711 38.801c-.856 1.022-14.054 15.659-15.086 16.691C21.008 57.109 18.855 58 16.566 58s-4.44-.891-6.058-2.508S8 51.723 8 49.434s.892-4.441 2.509-6.059c1.17-1.17 15.753-13.508 15.791-13.535 2.685-2.528 4.569-6.384 5.58-11.512.12-.612.521-1.133 1.081-1.408C33.522 16.644 34.178 16.647 34.737 16.926zM15.87 55.363c.768-.768.378-2.406-.87-3.654-1.249-1.249-2.886-1.639-3.654-.87-.768.768-.379 2.406.87 3.654C13.464 55.741 15.102 56.131 15.87 55.363zM46.796 21.236c4.112 3.909 5.532 8.129 5.532 8.129.237.538.227 1.152-.029 1.681s-.731.918-1.3 1.065c-2.025.523-4.618 1.469-7.266 2.818 1.866-4.241 2.647-7.754 2.557-13.147C46.46 21.602 46.629 21.42 46.796 21.236zM58.987 20.386c.547.945.234 2.154-.702 2.716l-3.466 2.08c-1.308-2.304-3.106-4.633-5.442-7.023 1.622-2.091 3.096-4.34 4.438-6.713L58.987 20.386zM44.303 18.036l-6.304-4.007c.792-2.237 1.493-4.47 2.093-6.737.15-.569.545-1.043 1.077-1.295.531-.252 1.148-.257 1.684-.014l7.537 3.426C48.621 12.555 46.588 15.444 44.303 18.036z"/></svg>