<svg xmlns="http://www.w3.org/2000/svg"  viewBox="0 0 512 512" width="48px" height="48px"><path fill="#F6851F" d="M313,412.4c-20.5,3.7-41.2,3.8-61.9,3.6c-32.7-0.3-67.9,1.1-95-19.2c0.5,2.7,1,5.4,1.4,8.1c2.9,17.7,7.1,36.4,21.8,48.2c13.1,10.5,29.7,14.3,45.9,17.4c26.3,5.1,54.2,7.9,80.8,2.7c22.5-4.4,42.1-16.2,49.3-39c3.9-12.5,4.9-25.2,5.2-38.1C345.6,403.9,329.6,409.4,313,412.4z"/><path fill="#3AB37C" d="M252.5,219.2c-0.9-14.2,2.1-28.8,11.9-38.9c0.1-0.1,0.1-0.3,0.2-0.4c2.3-4.6,1.2-13-1.5-19c-2-0.8-3.6-3.1-3.7-5.5c-5.9-5.7-15.7-8.1-23.6-5.8c-8.1,2.3-13.2,8.3-12.8,16.9c0.5,10.3,7.5,18.1,9.8,28c1.4,6-5.8,10.1-9.8,4.9c-6.2-8.3-22.1-12.9-30.7-6c-9.6,7.6-0.2,22.3,4.9,29.8c6.4,9.6,16.3,15.4,26.7,19.8c1.9-0.2,3.9,0.5,5.2,2.1c1,0.4,2,0.8,3,1.1c6.9,2.6,13.8,4.9,20.5,7.9c4.5,2,9,4,13.6,5.7C259,247.2,253.4,233.6,252.5,219.2z"/><path fill="#3AB37C" d="M217.2,252.2c-16-7.2-27.9-17.8-35.6-33.7c-6.6-13.7-6.5-31,9.9-37.4c2.7-1,5.5-1.7,8.4-1.9c-1.4-3-4.2-4.3-7.4-0.3c-2.4,3-6.6,2-8.7-0.6c-4.4-5.3-5.8-12.3-8.9-18.4c-2.2-4.3-7.9-10.1-13.1-6.2c-0.7,0.5-1.3,1.1-1.8,1.8c1.4,2.8,0.2,6.7-2.7,7.9c-0.3,2.1-0.4,4.2-0.6,5.9c-0.3,5.5,0,11,0.1,16.5c0,5.1-7.1,8.7-10,3.5c-8-13.9-32.4-24-47-14.6c-9.8,6.4-9.9,19-5.6,29c2.6,5.9,6.3,11.2,12.2,14c6.4,3.1,13.1,4.6,20,6.1c6.1,1.3,5.6,10.3-0.6,10.9c-8.4,0.8-24.3-0.8-29,8.3c-3.4,6.5,7.9,10,12.6,11.2c10.3,2.5,22.3,1.4,32.8,0.2c11.4-1.3,22.6-3.5,33.4-7.4c6.1-2.2,9.7,6,4.9,9.8c-4.7,3.6-6.5,10.9,0.5,13.4c5.3,1.9,12.1-0.5,17-2.6c6.6-2.9,18.2-7.1,20.5-14.9C218.2,252.6,217.7,252.4,217.2,252.2z"/><path fill="#3AB37C" d="M115.8 142.1c-3.3-3.3-6.5-7.2-9-11.4-5.6-.8-22-4.3-23 3.2-.8 6.6 5.2 11.3 9.9 14.9 5.2 4 10.9 7.4 15.7 11.8 12.6-1.2 26.3 3.2 36.3 11.1.1-3.4.3-6.8.8-10.1C135.1 157.5 124.1 150.4 115.8 142.1zM278.3 122.3c-.7-8.7-4.2-17.8-12.7-21.3-13.6-5.5-30.8 3.5-36 16.7-.3 1.1-.7 2.1-1.1 3.1-2.2 5.8-12.2 2.4-10.3-3.5.1-.5.3-.9.5-1.4l0 0c.1-.2.1-.3.2-.5l0 0c6.1-16.6 4.9-55.4-21.1-50.3C171 70.2 183 106.7 184 124.9c.3 5.5-6.9 8.1-10 3.5-8.4-12.1-14.8-25.2-30.4-28.7-10.1-2.3-27.1-2.3-30.2 10.7-2.7 11.1 6.4 21 14.3 27.5 6.6 5.4 14.2 10.2 22.4 13.2 1.9-3.4 4.6-6.1 8.5-7.8 8.5-3.7 18.7 0 23.8 7.5 3.4 4.9 4.9 11 7.5 16.3 4.1-2.3 8.9-2.7 13.6 0 4.7 2.7 7.7 7.9 8.5 13.3 1.1.3 2.2.6 3.3 1-.4-.9-.7-1.7-1-2.6-2.2-6-3-13-1.5-19.2 2.7-11.7 11.7-19.3 23.5-21.2 10.2-1.6 22.3 1 30.1 8.2C272.9 140.1 279 132 278.3 122.3z"/><path fill="#3AB37C" d="M245.1 49.2c-5.7 1.5-20.5 6-20.2 13.8 0 .9-.1 1.7-.4 2.4 5.9 8.4 8.3 20.2 8.1 31.7 3.9-3 8.3-5.4 12.9-6.9-1.8-13.3 9.7-28.1 20.4-34.6 1.2-.7 2.4-1.4 3.6-2C263.7 47.9 252.3 47.3 245.1 49.2zM347.9 164.4c-3.8-1.8-8-2.7-11.9-4.1-3.5-1.3-3.8-6.1-1.7-8.6 6.6-8 26.2-27.2 11.7-37-8.7-5.9-23.8.9-30.4 7.3-4.2 4-12.6-.5-9.1-6.1 4.8-7.6 6.9-17.2 6.9-26.1 0-8.3-1.2-18.8-7.4-25.1-8.1-8.2-21.9-6.9-31.4-1.6-5.1 2.8-9.4 6.5-12.8 11.2-2.6 3.6-6.1 9-5.5 13.9 5-.1 10.1 1 14.8 3.3 11.4 5.7 18.3 18.7 18 31.4-.3 13.6-7.5 23.8-16.8 32.6 2.3 4.9 4 10.7 4.3 16.3 4.7-2 9.9-2.8 14.9-1.1 6.9 2.3 11.4 8.1 13 15.1.9 3.9 1.3 7.8 1.5 11.7 4-5.2 8.6-10 13.3-14 9.2-7.9 20.8-14.3 32.9-15.6C350.9 166.6 349.8 165.3 347.9 164.4z"/><path fill="#FEBF10" d="M345.7,289.4c-24.8,5.5-50.2,7.1-75.6,7.4c-25.8,0.3-51.7,0.5-77.4-0.3c-22.3-0.7-44.6-2.3-66.4-6.9c9.9,30.4,19.9,61,26.8,92.3c1.3-0.2,2.7,0.2,4,1.4c25.7,24,62.3,21.5,95,21.8c19.4,0.2,39,0.2,58.2-3.3c16.8-3,33.1-8.7,48.2-16.8c0.4-1.2,1.2-2.2,2.4-2.7c0.1-5.4,0.3-10.8,0.6-16.2c2.1-28.9,9.7-57.1,12.9-85.8C365.2,284.2,355.6,287.2,345.7,289.4z"/><path fill="#3AB37C" d="M388.4 187.8c-1.4-.1-2.4-.7-3.1-1.5.1.6.2 1.1.3 1.7 1 8.7-3 17.1-7.9 24-2.5 3.5-5.3 6.6-8.3 9.5 7.7 2.1 16 3 23.9 2.8 7-.2 17.8-.5 22.5-6.8C427.3 202 400.7 188.8 388.4 187.8zM418.1 132.7c-6.5-13.6-27.5-11.5-38.6-5.8-6.3 3.2-11.6-4.5-6.2-9.1 14.7-12.5 37.6-43.1 13.2-58-10.6-6.4-23.3-2.8-33.9 2.1-10.2 4.7-21.7 11.8-27.3 21.9-.2.4-.5.7-.7 1 .4 6.7-.2 13.6-1.8 19.9 10.2-4.1 21.8-5 30.3 1.6 7.9 6.2 10.2 16.9 7.3 26.2-2.4 7.7-7.5 14.1-12.8 20.3 4.7 1.8 8.9 3.7 12.9 7.7 1.9 1.9 3.8 5 4.6 8 1.1.3 2.2.6 3.4 1 6.6 2.3 12.7 6.6 15.5 12.9 0-2.3 1.3-4.6 3.5-5.4C404.1 171.2 427.9 153.2 418.1 132.7z"/><path fill="#C56528" d="M363.9,265.8c-1,0.1-1.9,0-2.7-0.3c-8.4,4.7-19.1,6.7-27.7,8.2c-16.1,2.9-32.2,6.9-48.6,7.1c-1.6,0-3.5-0.7-4.7-2c-1.6,0-3.2-0.7-4.3-2.4c-0.6-0.9-1.1-1.8-1.7-2.7c-11.1-2.3-21.1-7.5-31.6-11.8c-4.5-1.8-9.1-3.4-13.7-5.1c-2,5.6-6.5,10.2-11.8,13.5c-7.5,4.7-16.2,8.9-24.8,10.7c-9.8,2-19.9,0.1-25.1-9.3c-1.9-3.4-2.3-6.8-1.8-10.1c-10.1,2.5-20.5,4-30.8,4.5c-0.6,0-1.2,0.1-1.8,0.1c0.2,2.2-0.8,4.4-3.6,5.3c-2.2,0.7-4.1,1.4-5.4,3.3c-0.4,0.6-0.6,1.6-0.4,2.8c43.3,10.1,88.5,8.3,132.7,8.2c23.1-0.1,46.3-0.4,69.1-3.8c10.5-1.6,20.8-3.8,31-6.8c4.2-1.2,8.1-2.8,12.1-4.3c1.5-0.6,3.1-1.2,4.6-1.9C370.5,266.7,367.3,265.4,363.9,265.8z"/><path fill="#71C598" d="M318.4,237.8c3.8-2,8-3.8,12.4-5.2c13.7-5.9,27.1-13.1,36.4-25c3.7-4.8,8.2-11.4,7.5-17.8c-0.7-6.7-8-10-14-10.9c-14.2-2.1-28.3,6.5-37.9,16.2c-9.4,9.5-17.8,21.6-19,35.3c-0.6,7.1-11.4,4.9-10.8-2.1c1-11.8,3.4-23.8,1.7-35.7c-0.6-4.5-2-10.9-7.4-11.8c-5-0.8-10.2,2.4-13.7,5.8c-23.2,22.5-4.1,58.8,10,81.5c2-0.6,4.1,0.1,5.6,1.5c11.5-0.7,22.7-3.2,34-5.3c11.5-2,24.2-3.4,34.2-9.8c2.8-1.8,8.1-6.2,5.4-10c-2.6-3.7-6.8-4.4-11.1-4.3c-5.7,0.1-11.8,1-17.5,2.6c-3.7,1.6-7.4,3.1-11.1,4.6C317.5,249.8,312.8,240.8,318.4,237.8z"/><path d="M405,180.8c18.1-11.3,33.3-31.2,23.1-52.7c-6.4-13.4-20.5-17.5-34.3-16.2c14.3-18.5,22.9-43.1,1.2-59.6c-13.1-10-29.1-7.7-43.5-1.9c-10.6,4.3-21.7,10.9-29.7,19.8c-2.4-6.8-6.4-12.8-12.2-17c-8.5-6-19.3-6.4-29.3-3.8c-7.9-11-23.5-13.9-36.5-11.2c-10.2,2.1-24.4,8.1-28.6,18.6c-4.1-2.2-9.1-3.4-14.9-3.2c-16.5,0.6-27.9,12.4-30,28.3c-1,7.5-0.5,15,0.4,22.4c-1.3-1.7-2.7-3.3-4.3-4.8c-5.9-5.9-14-9.1-22-11c-15.1-3.4-33.3,0.1-40.4,15.3c-2.4,5.1-2.8,10.3-1.8,15.2c-11.4-1.2-25.1-1.4-28.7,11c-4.8,16.4,11.2,25.4,23,34.2c-1.8,0.9-3.5,2-5.2,3.2c-12.3,9.6-12.6,26.5-7.4,40c3,7.6,8,14.2,14.8,18.7c0.6,0.4,1.3,0.8,2,1.2c-4.2,1.5-8.1,3.8-11.4,7.6c-8.5,9.8-2.9,20.5,7,26.1c6.3,3.5,13.4,5,20.6,5.4c-3.7,3.9-5.2,9.3-3.7,15.5c-0.3,1-0.3,2.1,0.1,3.3c10,30.8,19.9,61.6,27.7,93.1c6.7,27,6.5,57.7,26.8,79c17.4,18.3,45.7,22.8,69.4,26.4c26.4,4,54.1,5,80.1-1.9c17-4.5,31.6-13.9,41.3-28.7c8.7-13.3,11.5-29.9,12.6-45.5c1.5-20,0.5-39.9,3.4-59.9c3.4-23.9,9.1-47.3,11.3-71.4c0.2-2.2-0.7-3.8-2-5c1.3-1.6,1.7-3.9,0.2-6.2c-2.8-4.3-7.2-7.8-12.2-9.5c7.2-11.7-1.4-23.2-13.1-25.8c1-0.7,1.9-1.3,2.8-2c0.5,1.7,1.8,3.1,3.9,3.8c10.4,3.1,21.7,4,32.4,3.3c10.7-0.6,22.4-3.7,28.3-13.4C436.8,204.4,421.6,188.1,405,180.8z M324.7,84.8c0.3-0.3,0.5-0.6,0.7-1c5.6-10.1,17.2-17.2,27.3-21.9c10.6-4.9,23.3-8.5,33.9-2.1c24.4,14.9,1.5,45.5-13.2,58c-5.4,4.6-0.2,12.3,6.2,9.1c11.1-5.7,32-7.8,38.6,5.8c9.8,20.5-14,38.4-30.5,44.4c-2.3,0.8-3.5,3.2-3.5,5.4c-2.8-6.3-8.9-10.7-15.5-12.9c-1.1-0.4-2.2-0.7-3.4-1c-0.7-3-2.7-6.2-4.6-8c-4-4-8.2-6-12.9-7.7c5.2-6.1,10.4-12.6,12.8-20.3c2.9-9.3,0.6-20-7.3-26.2c-8.5-6.6-20.2-5.8-30.3-1.6C324.5,98.4,325.1,91.5,324.7,84.8z M306.1,64.7c6.2,6.3,7.4,16.8,7.4,25.1c0,9-2.1,18.5-6.9,26.1c-3.5,5.6,4.9,10.1,9.1,6.1c6.6-6.4,21.7-13.2,30.4-7.3c14.6,9.8-5.1,29.1-11.7,37c-2.1,2.5-1.8,7.3,1.7,8.6c3.9,1.5,8.1,2.4,11.9,4.1c1.8,0.8,2.9,2.2,4.4,3.4c-12.1,1.2-23.7,7.7-32.9,15.6c-4.7,4.1-9.3,8.8-13.3,14c-0.2-3.9-0.6-7.8-1.5-11.7c-1.6-7-6.2-12.8-13-15.1c-5-1.7-10.2-0.9-14.9,1.1c-0.3-5.6-1.9-11.5-4.3-16.3c9.3-8.8,16.6-19,16.8-32.6c0.2-12.7-6.6-25.7-18-31.4c-4.8-2.4-9.8-3.4-14.8-3.3c-0.6-4.8,2.9-10.2,5.5-13.9c3.4-4.7,7.7-8.4,12.8-11.2C284.2,57.8,297.9,56.5,306.1,64.7z M225,62.9c-0.3-7.7,14.5-12.3,20.2-13.8c7.1-1.8,18.6-1.3,24.5,4.3c-1.2,0.6-2.5,1.3-3.6,2c-10.7,6.5-22.2,21.2-20.4,34.6c-4.6,1.5-9,3.9-12.9,6.9c0.2-11.5-2.2-23.3-8.1-31.7C224.8,64.6,225,63.8,225,62.9z M113.2,110.4c3.1-13,20.1-13,30.2-10.7c15.6,3.5,22.1,16.6,30.4,28.7c3.2,4.6,10.3,2,10-3.5c-0.9-18.2-13-54.7,13.7-59.9c26.1-5.1,27.2,33.7,21.1,50.3l0,0c-0.1,0.2-0.1,0.3-0.2,0.5l0,0c-0.2,0.5-0.3,0.9-0.5,1.4c-1.9,5.9,8.1,9.2,10.3,3.5c0.4-1,0.7-2,1.1-3.1c5.3-13.2,22.5-22.3,36-16.7c8.6,3.5,12.1,12.7,12.7,21.3c0.7,9.7-5.4,17.7-12.2,24.2c-7.8-7.3-19.9-9.8-30.1-8.2c-11.7,1.9-20.7,9.5-23.5,21.2c-1.5,6.3-0.6,13.2,1.5,19.2c0.3,0.9,0.7,1.7,1,2.6c-1.1-0.4-2.2-0.7-3.3-1c-0.8-5.4-3.8-10.6-8.5-13.3c-4.7-2.7-9.5-2.3-13.6,0c-2.6-5.3-4.1-11.4-7.5-16.3c-5.1-7.5-15.3-11.2-23.8-7.5c-3.9,1.7-6.6,4.4-8.5,7.8c-8.2-2.9-15.8-7.8-22.4-13.2C119.6,131.4,110.6,121.5,113.2,110.4z M252.5,219.2c1,14.4,6.6,28,13.5,40.7c-4.6-1.7-9.1-3.7-13.6-5.7c-6.7-3-13.7-5.3-20.5-7.9c-1-0.4-2-0.7-3-1.1c-1.2-1.6-3.3-2.3-5.2-2.1c-10.4-4.4-20.2-10.2-26.7-19.8c-5.1-7.5-14.4-22.2-4.9-29.8c8.6-6.9,24.6-2.3,30.7,6c3.9,5.2,11.1,1.1,9.8-4.9c-2.3-9.9-9.3-17.7-9.8-28c-0.4-8.7,4.8-14.6,12.8-16.9c8-2.3,17.7,0.1,23.6,5.8c0.1,2.4,1.6,4.7,3.7,5.5c2.7,6,3.9,14.4,1.5,19c-0.1,0.1-0.1,0.3-0.2,0.4C254.6,190.4,251.5,205,252.5,219.2z M93.7,148.8c-4.7-3.6-10.7-8.3-9.9-14.9c0.9-7.6,17.3-4,23-3.2c2.5,4.2,5.7,8.1,9,11.4c8.3,8.3,19.3,15.5,30.8,19.5c-0.5,3.3-0.8,6.7-0.8,10.1c-10-7.8-23.8-12.3-36.3-11.1C104.6,156.2,98.9,152.8,93.7,148.8z M109.5,254.3c-4.6-1.1-15.9-4.7-12.6-11.2c4.7-9.1,20.6-7.5,29-8.3c6.2-0.6,6.7-9.5,0.6-10.9c-6.9-1.5-13.6-3-20-6.1c-5.9-2.9-9.6-8.1-12.2-14c-4.3-10-4.3-22.6,5.6-29c14.6-9.5,39,0.6,47,14.6c3,5.2,10.1,1.6,10-3.5c0-5.5-0.4-11-0.1-16.5c0.1-1.7,0.2-3.8,0.6-5.9c3-1.1,4.1-5.1,2.7-7.9c0.5-0.7,1.1-1.3,1.8-1.8c5.2-3.9,10.9,1.9,13.1,6.2c3,6.1,4.5,13,8.9,18.4c2.1,2.6,6.3,3.5,8.7,0.6c3.2-4,5.9-2.7,7.4,0.3c-2.9,0.2-5.7,0.8-8.4,1.9c-16.4,6.4-16.5,23.7-9.9,37.4c7.7,15.9,19.6,26.5,35.6,33.7c0.5,0.2,1,0.4,1.4,0.6c-2.3,7.8-13.9,12.1-20.5,14.9c-4.9,2.1-11.7,4.5-17,2.6c-7-2.5-5.2-9.9-0.5-13.4c4.8-3.7,1.2-11.9-4.9-9.8c-10.8,3.9-22,6.1-33.4,7.4C131.8,255.7,119.8,256.8,109.5,254.3z M355.4,434.3c-7.2,22.8-26.9,34.6-49.3,39c-26.5,5.2-54.5,2.4-80.8-2.7c-16.1-3.1-32.8-6.9-45.9-17.4c-14.7-11.8-18.9-30.5-21.8-48.2c-0.4-2.7-0.9-5.4-1.4-8.1c27,20.3,62.3,18.9,95,19.2c20.7,0.2,41.5,0.1,61.9-3.6c16.6-3,32.6-8.5,47.6-16.2C360.3,409,359.3,421.8,355.4,434.3z M361.5,366.1c-0.4,5.4-0.5,10.8-0.6,16.2c-1.2,0.5-2,1.5-2.4,2.7c-15,8.1-31.4,13.7-48.2,16.8c-19.2,3.5-38.8,3.4-58.2,3.3c-32.7-0.3-69.3,2.2-95-21.8c-1.3-1.2-2.7-1.6-4-1.4c-6.9-31.2-16.9-61.9-26.8-92.3c21.8,4.6,44.1,6.2,66.4,6.9c25.8,0.8,51.7,0.7,77.4,0.3c25.4-0.3,50.7-1.9,75.6-7.4c9.9-2.2,19.5-5.2,28.8-9.1C371.2,309.1,363.6,337.2,361.5,366.1z M372.9,269c-1.5,0.7-3,1.4-4.6,1.9c-4,1.5-7.9,3.1-12.1,4.3c-10.2,3-20.5,5.2-31,6.8c-22.8,3.4-46,3.8-69.1,3.8c-44.1,0.1-89.4,1.8-132.7-8.2c-0.2-1.2,0-2.2,0.4-2.8c1.3-1.9,3.2-2.6,5.4-3.3c2.8-0.8,3.8-3.1,3.6-5.3c0.6,0,1.2-0.1,1.8-0.1c10.3-0.5,20.7-2,30.8-4.5c-0.5,3.3,0,6.7,1.8,10.1c5.2,9.3,15.3,11.3,25.1,9.3c8.7-1.8,17.3-6,24.8-10.7c5.3-3.3,9.7-7.9,11.8-13.5c4.6,1.6,9.2,3.2,13.7,5.1c10.4,4.3,20.4,9.5,31.6,11.8c0.6,0.9,1.1,1.8,1.7,2.7c1.1,1.8,2.7,2.5,4.3,2.4c1.2,1.3,3.1,2,4.7,2c16.4-0.2,32.5-4.2,48.6-7.1c8.6-1.5,19.3-3.5,27.7-8.2c0.8,0.3,1.6,0.4,2.7,0.3C367.3,265.4,370.5,266.7,372.9,269z M330.8,232.6c-4.4,1.4-8.6,3.2-12.4,5.2c-5.5,3-0.8,12,4.9,9.8c3.7-1.5,7.4-3,11.1-4.6c5.7-1.7,11.8-2.5,17.5-2.6c4.3-0.1,8.5,0.6,11.1,4.3c2.7,3.8-2.6,8.3-5.4,10c-10.1,6.4-22.8,7.7-34.2,9.8c-11.4,2-22.5,4.5-34,5.3c-1.5-1.4-3.6-2.1-5.6-1.5c-14.2-22.7-33.3-59-10-81.5c3.5-3.4,8.7-6.6,13.7-5.8c5.4,0.8,6.8,7.3,7.4,11.8c1.6,11.8-0.8,23.9-1.7,35.7c-0.6,7,10.2,9.2,10.8,2.1c1.2-13.7,9.6-25.8,19-35.3c9.6-9.7,23.7-18.3,37.9-16.2c6,0.9,13.2,4.1,14,10.9c0.7,6.4-3.8,13.1-7.5,17.8C357.9,219.5,344.5,226.7,330.8,232.6z M415.8,217.5c-4.7,6.3-15.5,6.6-22.5,6.8c-8,0.2-16.2-0.7-23.9-2.8c3-2.9,5.8-6,8.3-9.5c4.9-6.9,8.9-15.3,7.9-24c-0.1-0.6-0.2-1.2-0.3-1.7c0.7,0.8,1.7,1.4,3.1,1.5C400.7,188.8,427.3,202,415.8,217.5z"/></svg>