<svg xmlns="http://www.w3.org/2000/svg"  viewBox="0 0 512 512" width="48px" height="48px"><path fill="#C56528" d="M449.2,129.3c-13.8-22.4-31.3-43.1-52.7-58.7c-21.4-15.6-47.2-26.3-74-20.9c-26.1,5.3-48.5,22-68.3,38.9c-8.4,7.1-16.7,14.3-25.1,21.5c0.4,0.9,0.5,1.9,0.3,3.1c-3.8,22.3,25.3,22.9,38.7,13.8c4.1-2.8,7.3-6.7,9.4-11.3c0.3-0.7,0.6-1.4,0.8-2.1c-1.9-0.3-4.9,0.2-7.5,1.1c-1.3,0.4-3.1,1.2-3.3,1.3c-0.1,0.1-0.2,0.1-0.3,0.2c-1.7,4-8.5,5.1-10.3-0.2c-3.6-10.4,16.1-14,22.7-13.3c17,2,7.4,22.2-0.1,29.3c-10.3,9.5-26.2,14-39.9,10.7c-12.5-3-20.2-11.8-21.2-23.4c-11.9,9.8-24,19.2-36.9,27.5c-13.2,8.5-26.7,16.4-40.1,24.4c-12,7.1-24.4,14-35.4,22.6c-10.2,7.9-19.4,17.8-23.2,30.4c-4.4,14.6-2.6,29.7,0,44.5c0.6,3.2-1.4,5.1-3.9,5.6c-0.1,0.2-0.3,0.3-0.5,0.5c-7.7,7.5-15.2,15.2-19.7,25.2c-4.1,9-6.1,18.9-5.9,28.8c0.5,20.2,7.7,40.3,20.2,56.2c24.3,31.1,62.5,37.2,99.5,34.9c-2.8-0.8-5.5-2.3-7.4-4.3c-3.4-3.6-5.4-7.9-5.3-12.9c0.2-6.6,7.1-8.2,11.9-5.4c4.1,2.4,3.2,7.6,0.4,9.7c0.8,1.1,1.8,2,3.3,2.3c2.7,0.6,3.7-0.7,3.3-3.7c-0.8-6.7-11.1-18.4-17.3-10.8c-4.5,5.5-12.8-1.8-8.3-7.3c15.3-18.6,46.4,9.7,33.9,27.9c-1.1,1.6-2.5,2.7-4,3.6c0.1,0,0.3,0,0.4,0c15.2-1.6,30.3-3.2,45.7-3.2c16.2,0,32.5,0.8,48.7,1.6c26.8,1.4,54.8,3.7,81.1-3.1c21.6-5.5,41.6-16.5,54.7-34.9c16.9-23.7,20.5-54.3,28.2-81.6c8.3-29.1,22.3-56.7,25.7-87.1C470.5,182,464.2,153.7,449.2,129.3z M158.1,276.5c-9.4,3.7-21.3,2.6-30.4-1.4c-8.6-3.8-15.3-12.3-9.6-21.5c3.7-6,13.6-1.1,9.9,4.9c-1.3,2-1.6,2.3-0.2,3.8c1.3,1.5,3.8,2.6,5.7,3.3c5.5,2,11.9,2.7,17.6,1.6c13-2.4,7.6-20.8-1.7-19.3c-0.1,2.4-1.7,4.7-4.9,4.7h-4c-4.3,0-8.4-5.5-4.6-9.1c4.7-4.4,11-8.1,17.8-6.6c5.8,1.3,10.6,5,13.4,10.2C172.8,257.2,169.7,272,158.1,276.5z M292.3,392.6c-6.7,6-14.7,10.3-23.8,11.3c-7.3,0.8-16,0.1-20.1-6.9c-3.6-6.1,5.5-12.2,9.1-6.2c2.2,3.6,8.6,2.4,12.1,1.8c5.1-1,10.7-3.7,14.4-7.3c7-6.9,8.7-15.7,1.4-22.9c-3.1-3.1-14.3-13.3-18.8-7.4c-2.1,2.8-0.1,8.9,2.9,9.7c2.1-1.8,4-2.8,6.9-3.2c4.8-0.6,7.7,5.6,4.6,9.1c-11.4,12.6-28.6-0.4-26-15.3c1.1-6.7,6.9-13,14.1-12.9c7.6,0.1,14.6,3.8,20.3,8.7c5.3,4.5,10,9.8,11.5,16.8C302.8,377,299.1,386.5,292.3,392.6z M315.5,264.7c-10.1,7.9-29.2,7.3-31-8.2c-0.8-7.1,10.2-7.9,11-0.8c0.6,5.5,9.5,3,12.4,1c2.1-1.5,4-3.6,3.5-6.4c-0.5-3.1-3-5.4-5.9-6.1c-0.6,0.3-1.3,0.4-2.1,0.4h-3c-6,0-8.5-8.7-2.2-10.7C316.6,228.1,331.3,252.3,315.5,264.7z M332.3,182.4c-9-9.3-8.3-21.7,3.9-27.6c2.2-1.1,5.1,0.3,6.4,2.1c1.2,1.8,1.8,3.5,1.9,5.7c0.2,4.6-4.4,6.5-7.6,5.5c-0.2,0.4-0.2,0.9-0.1,1.2c0.8,2.9,2.7,5.1,5.2,6.9c5.5,3.9,13.3,4,17-2.3c4.2-7.3,1.2-16.1-2.1-23.4c-2.1-4.7-7.3-15.3-12.8-10.9c-5.5,4.4-11.7-4.7-6.2-9.1c12.5-10,24.2,4.9,28.9,15.4c5.3,11.8,8.9,27-1.3,37.4C356.3,192.6,341.4,191.8,332.3,182.4z M407.4,281.8c-2.2,10.4-9.6,20.8-21.3,20.7c-11.7-0.1-25-7.8-24.7-20.9c0.2-10.3,15.2-22.2,23.2-11.7c4,5.3-3.7,11-8.2,7.1c-0.1,0.1-0.3,0.2-0.5,0.3c-0.6,0.3-1.1,0.7-1.5,1.2c-0.6,0.7-1.8,1.6-1.9,2.6c-0.4,3.1,1.4,5.7,3.8,7.5c4.2,3,11.6,4.7,15.7,0.5c8.1-8.3,6.2-24.4-0.5-33c-4.4-5.6,4.8-11.7,9.1-6.2C407.2,258.5,409.6,271.3,407.4,281.8z"/><path d="M459.1,124.4c-13.4-22.5-30.9-43-51.5-59.2c-20.5-16.2-45.4-28.3-72-28c-26.4,0.3-50.8,14-71.4,29.3c-23.9,17.7-45.5,38.5-69.1,56.7c-24.8,19.2-52.6,33.9-79.2,50.3c-22.5,13.9-42.5,31.3-46.5,58.9c-1.6,11.3-0.3,22.9,1.6,34.2c-0.4,0.2-0.8,0.5-1.1,0.9c-9.1,8.9-17.3,18.3-22.5,30.1c-4.7,10.9-6.3,22.9-5.8,34.8c1,24.3,11.8,47.7,27.8,65.7c16.2,18.2,39.3,28.2,63.1,31.6c26.1,3.8,51.5-0.9,77.6-2.5c32.5-2.1,65,1.4,97.5,2.2c24.2,0.6,48.5-1.2,71.2-10.3c21.1-8.5,38.5-23.5,49.6-43.3c14.6-25.9,17.9-57.1,26.6-85.1c4.6-14.9,10.7-29.2,15.5-44c4.4-13.7,7.3-27.9,8.3-42.3C480.7,176.1,473.5,148.6,459.1,124.4z M467.3,210.4c-3.4,30.4-17.5,58-25.7,87.1c-7.7,27.3-11.3,57.9-28.2,81.6c-13.2,18.4-33.2,29.4-54.7,34.9c-26.3,6.8-54.3,4.5-81.1,3.1c-16.2-0.8-32.4-1.7-48.7-1.6c-15.4,0-30.4,1.6-45.7,3.2c-0.1,0-0.3,0-0.4,0c1.6-0.8,2.9-2,4-3.6c12.5-18.2-18.6-46.5-33.9-27.9c-4.5,5.5,3.8,12.7,8.3,7.3c6.2-7.6,16.5,4.1,17.3,10.8c0.4,3-0.6,4.3-3.3,3.7c-1.5-0.3-2.6-1.2-3.3-2.3c2.9-2.1,3.7-7.3-0.4-9.7c-4.8-2.8-11.7-1.3-11.9,5.4c-0.2,5,1.9,9.3,5.3,12.9c1.9,2.1,4.6,3.6,7.4,4.3c-37,2.3-75.2-3.8-99.5-34.9c-12.5-16-19.7-36-20.2-56.2c-0.2-9.9,1.8-19.8,5.9-28.8c4.6-10,12-17.6,19.7-25.2c0.2-0.2,0.3-0.3,0.5-0.5c2.4-0.5,4.4-2.3,3.9-5.6c-2.6-14.8-4.4-29.9,0-44.5c3.8-12.6,13.1-22.5,23.2-30.4c11-8.6,23.4-15.5,35.4-22.6c13.5-8,27-15.9,40.1-24.4c12.9-8.3,25-17.7,36.9-27.5c1,11.6,8.7,20.4,21.2,23.4c13.8,3.3,29.6-1.2,39.9-10.7c7.6-7,17.2-27.3,0.1-29.3c-6.5-0.8-26.3,2.8-22.7,13.3c1.8,5.3,8.6,4.2,10.3,0.2c0.1-0.1,0.2-0.1,0.3-0.2c0.2-0.1,2-0.9,3.3-1.3c2.6-0.9,5.5-1.3,7.5-1.1c-0.2,0.7-0.5,1.4-0.8,2.1c-2.1,4.5-5.3,8.5-9.4,11.3c-13.4,9.2-42.5,8.5-38.7-13.8c0.2-1.2,0.1-2.2-0.3-3.1c8.4-7.2,16.7-14.4,25.1-21.5c19.9-16.8,42.3-33.6,68.3-38.9c26.8-5.4,52.6,5.3,74,20.9c21.4,15.6,38.9,36.3,52.7,58.7C464.2,153.7,470.5,182,467.3,210.4z"/><path d="M167.1 247c-2.9-5.2-7.6-8.9-13.4-10.2-6.8-1.5-13.1 2.2-17.8 6.6-3.9 3.6.2 9.1 4.6 9.1h4c3.2 0 4.8-2.2 4.9-4.7 9.3-1.5 14.7 16.9 1.7 19.3-5.7 1.1-12.2.4-17.6-1.6-1.9-.7-4.4-1.8-5.7-3.3-1.3-1.6-1-1.8.2-3.8 3.7-6-6.2-10.9-9.9-4.9-5.7 9.2 1 17.8 9.6 21.5 9.1 4 21.1 5.1 30.4 1.4C169.7 272 172.8 257.2 167.1 247zM366.8 145.8c-4.7-10.5-16.4-25.4-28.9-15.4-5.5 4.4.6 13.6 6.2 9.1 5.5-4.4 10.7 6.2 12.8 10.9 3.3 7.3 6.3 16.1 2.1 23.4-3.7 6.4-11.6 6.3-17 2.3-2.5-1.8-4.3-4-5.2-6.9-.1-.4-.1-.8.1-1.2 3.3 1.1 7.8-.9 7.6-5.5-.1-2.2-.7-3.9-1.9-5.7-1.3-1.9-4.2-3.2-6.4-2.1-12.2 5.9-12.9 18.3-3.9 27.6 9.1 9.4 24 10.1 33.2.8C375.7 172.9 372.1 157.7 366.8 145.8zM400.6 249.9c-4.3-5.6-13.5.5-9.1 6.2 6.7 8.6 8.6 24.7.5 33-4.1 4.2-11.5 2.5-15.7-.5-2.5-1.8-4.2-4.4-3.8-7.5.1-1 1.3-1.9 1.9-2.6.5-.4 1-.8 1.5-1.2.2-.1.4-.2.5-.3 4.5 3.9 12.3-1.8 8.2-7.1-8-10.5-23 1.3-23.2 11.7-.3 13.1 12.9 20.8 24.7 20.9 11.7.1 19.2-10.3 21.3-20.7C409.6 271.3 407.2 258.5 400.6 249.9zM298.2 233.8c-6.3 1.9-3.7 10.7 2.2 10.7h3c.8 0 1.5-.1 2.1-.4 2.9.7 5.4 3 5.9 6.1.5 2.8-1.4 4.9-3.5 6.4-2.9 2-11.8 4.5-12.4-1-.8-7-11.8-6.2-11 .8 1.8 15.5 20.8 16.2 31 8.2C331.3 252.3 316.6 228.1 298.2 233.8zM300.9 368c-1.5-7-6.1-12.3-11.5-16.8-5.7-4.9-12.7-8.6-20.3-8.7-7.2-.1-12.9 6.2-14.1 12.9-2.5 14.9 14.7 27.9 26 15.3 3.1-3.5.3-9.7-4.6-9.1-2.9.4-4.9 1.4-6.9 3.2-3-.8-5-6.9-2.9-9.7 4.4-5.9 15.6 4.3 18.8 7.4 7.3 7.2 5.5 16.1-1.4 22.9-3.7 3.6-9.3 6.4-14.4 7.3-3.5.7-10 1.9-12.1-1.8-3.7-6.1-12.8.1-9.1 6.2 4.2 6.9 12.8 7.7 20.1 6.9 9-1 17.1-5.3 23.8-11.3C299.1 386.5 302.8 377 300.9 368z"/></svg>