<svg xmlns="http://www.w3.org/2000/svg"  viewBox="0 0 64 64" width="48px" height="48px"><path d="M32,54c-12.15,0-22-9.85-22-22s9.85-22,22-22s22,9.85,22,22S44.15,54,32,54z M22.808,43.192c1.104,0,2-0.895,2-2	s-0.896-2-2-2s-2,0.895-2,2S21.703,43.192,22.808,43.192z M19,34c1.104,0,2-0.895,2-2c0-1.105-0.896-2-2-2s-2,0.895-2,2	C17,33.105,17.896,34,19,34z M22.808,24.808c1.104,0,2-0.895,2-2c0-1.105-0.896-2-2-2s-2,0.895-2,2	C20.808,23.912,21.703,24.808,22.808,24.808z M32,21c1.104,0,2-0.895,2-2c0-1.105-0.896-2-2-2s-2,0.895-2,2	C30,20.105,30.896,21,32,21z M45,34c1.104,0,2-0.895,2-2c0-1.105-0.896-2-2-2s-2,0.895-2,2C43,33.105,43.896,34,45,34z M41.192,43.192c1.104,0,2-0.895,2-2s-0.896-2-2-2s-2,0.895-2,2S40.088,43.192,41.192,43.192z M34.121,34.121	c0.5-0.5,1.334-1.472,4.913-6.459c4.392-6.121,4.685-6.57,4.279-6.976c-0.406-0.405-0.854-0.113-6.976,4.279	c-4.988,3.579-5.96,4.413-6.459,4.913c-1.172,1.172-1.172,3.071,0,4.243C31.05,35.293,32.95,35.293,34.121,34.121z"/></svg>