<svg xmlns="http://www.w3.org/2000/svg"  viewBox="0 0 64 64" width="64px" height="64px"><g data-name="Filled outline"><path fill="#394d5c" d="M12,50A10,10,0,1,1,22,40,10.011,10.011,0,0,1,12,50Z"/><polygon fill="#7c8c9a" points="37 26 33 30 33.04 37.19 33 37.5 26 36 22 30 27 26 37 26"/><path fill="#394d5c" d="M53,50a9,9,0,1,1,9-9A9.01,9.01,0,0,1,53,50Z"/><path fill="#7c8c9a" d="M53,45a4,4,0,1,1,4-4A4.005,4.005,0,0,1,53,45Z"/><circle cx="12" cy="40" r="3.354" fill="#a8bccb"/><polygon fill="#da3e46" points="7 19 16 20 18 24 27 26 22 30 7 19"/><polygon fill="#911d2e" points="43 30 43 33 33 37 33 30 43 30"/><path fill="#da3e46" d="M58,30l-9,3-4,5v7H24V40.087L32.31,37.5,33,37l10-4V30H33l2-4H47a2.006,2.006,0,0,0,2-2v-.87a2,2,0,0,0-.97-1.71L44,19l9,1,4,5Z"/><path fill="#911d2e" d="M43,26H27v0a9.141,9.141,0,0,1,6.382-4.875L34,21h5a4,4,0,0,1,4,4Z"/><path fill="#5a6470" d="M28.844,30H31a2,2,0,0,1,2,2v5.156a.844.844,0,0,1-.844.844H26.844A.844.844,0,0,1,26,37.156V32.844A2.844,2.844,0,0,1,28.844,30Z"/><polygon fill="#f4ab37" points="57 25 53 25 51 28 55 28 58 30 57 25"/><polygon fill="#5a6470" points="26.86 39.795 12.279 41.281 11.441 38.615 26.688 35.782 26.86 39.795"/><polygon fill="#a8bccb" points="44 19 53 20 46 14 44 19"/><circle cx="29.5" cy="37.5" r="3.5" fill="#394d5c"/><polygon fill="#7c8c9a" points="15.777 42.968 7 38.734 9.172 34.231 17.294 40.572 15.777 42.968"/><path d="M54.675,32.162l3.641-1.214c.019-.006.032-.02.05-.027a1.007,1.007,0,0,0,.191-.09c.016-.011.027-.027.043-.039a1.047,1.047,0,0,0,.085-.078.982.982,0,0,0,.139-.164.926.926,0,0,0,.06-.1.994.994,0,0,0,.076-.208c.008-.035.02-.067.025-.1a.968.968,0,0,0-.005-.335l-1-5a.974.974,0,0,0-.178-.384c-.01-.014-.011-.032-.021-.045l-4-5c-.016-.02-.041-.03-.058-.049s-.043-.06-.072-.085l-7-6a1,1,0,0,0-1.58.388l-2,5c0,.007,0,.015,0,.023a.249.249,0,0,0-.015.028.98.98,0,0,0-.046.374c0,.032.012.06.017.092a.972.972,0,0,0,.1.3c.01.02.008.043.02.063s.028.024.038.039a.977.977,0,0,0,.243.25c.018.013.03.031.049.043l.013.011,4.03,2.42A1,1,0,0,1,48,23.13V24a1,1,0,0,1-1,1H44a5.006,5.006,0,0,0-5-5H34a1,1,0,0,0-.2.02l-.617.123A10.059,10.059,0,0,0,26.5,24.864l-7.818-1.737L16.9,19.553a1,1,0,0,0-.785-.547l-9-1a1,1,0,0,0-.7,1.8L8.977,21.69,2.649,24.063A1,1,0,0,0,2,25v4H4V25.693l6.9-2.589,10.333,7.577,2.626,4.594L21,35.656A10,10,0,1,0,12,50a9.92,9.92,0,0,0,8.63-5H44.95a8.994,8.994,0,1,0,9.725-12.838ZM56.18,26l.323,1.613.043.216-.991-.661A1.006,1.006,0,0,0,55,27H52.869l.666-1ZM46.41,15.668l3.476,2.979-.993-.11-3.476-.386ZM33.579,22.1l.52-.1H39a3,3,0,0,1,3,3H28.816A8.082,8.082,0,0,1,33.579,22.1ZM18.206,41.745l1.648-.29a7.78,7.78,0,0,1-.286,1.114Zm-2.8-.068L8.335,38.269l1.2-2.487,6.353,4.96Zm-2.314,1.1a2.945,2.945,0,0,1-3.942-1.9ZM32,33.762a4.482,4.482,0,0,0-5,0V32.84A1.842,1.842,0,0,1,28.84,31H31a1,1,0,0,1,1,1Zm-6.986,3.6c0,.048-.014.093-.014.141a4.422,4.422,0,0,0,.12,1l-7.26,1.279a.915.915,0,0,0-.089-.1l-1.716-1.34L25,37.142v.018A1.825,1.825,0,0,0,25.014,37.359Zm-3.088,3.73.767-.135L22.9,43H21.525A9.664,9.664,0,0,0,21.926,41.089ZM29.5,35A2.5,2.5,0,1,1,27,37.5,2.5,2.5,0,0,1,29.5,35Zm5.367-4H42v1.336l-7.792,3.277ZM33,29.78A2.981,2.981,0,0,0,31,29H28.84A3.845,3.845,0,0,0,25,32.84v.393l-1.707-2.987L27.351,27H33ZM15.349,20.934l1.756,3.513a1,1,0,0,0,.678.53l6.962,1.546L21.974,28.74,10.61,20.407ZM12,48a8,8,0,1,1,6.882-12.062l-5.039.671L9.788,33.442a1,1,0,0,0-1.517.354L6.1,38.3a1,1,0,0,0,.466,1.335l.449.216C7.013,39.9,7,39.946,7,40a4.991,4.991,0,0,0,8.225,3.811l.184.089a1,1,0,0,0,1.323-.44l.106-.2,1.847,1.118A7.939,7.939,0,0,1,12,48Zm32-5H24.906l-.238-2.394,1.388-.245a4.463,4.463,0,0,0,7.9-2.474l9.427-3.965A1,1,0,0,0,44,33V30a1,1,0,0,0-1-1H35V27H47a3,3,0,0,0,3-3v-.87a3.01,3.01,0,0,0-1.456-2.567l-.1-.063,4.037.448L54.919,24H53a1,1,0,0,0-.832.445l-2,3A1,1,0,0,0,51,29h3.7l1.047.7L49.557,31.76l-.014,0-.009,0-.85.284a.993.993,0,0,0-.465.323l-4,5A1,1,0,0,0,44,38Zm9,5a7.008,7.008,0,0,1-7-7V38.351l3.364-4.2.986,2.631a5.436,5.436,0,1,0,1.874-.7l-.713-1.9A6.993,6.993,0,1,1,53,48Zm-.937-6.649A1,1,0,0,0,53,42a1.029,1.029,0,0,0,.351-.063,1,1,0,0,0,.586-1.288l-.991-2.644c.018,0,.036-.005.054-.005a3.038,3.038,0,1,1-1.923.717Z"/></g></svg>